<svg width="1024" height="1024" viewBox="0 0 180 180" xmlns="http://www.w3.org/2000/svg">
  <defs>
    <linearGradient id="ouro" x1="0" y1="0" x2="1" y2="1">
      <stop offset="0%" stop-color="#FFE27A"/>
      <stop offset="100%" stop-color="#E8A63B"/>
    </linearGradient>
    <linearGradient id="amarelo" x1="0" y1="0" x2="0" y2="1">
      <stop offset="0%" stop-color="#FFD84D"/>
      <stop offset="100%" stop-color="#F5B800"/>
    </linearGradient>
  </defs>
  <rect width="180" height="180" rx="40" fill="#052224"/>
  <ellipse cx="90" cy="100" rx="52" ry="40" fill="url(#amarelo)"/>
  <path d="M55 68 Q48 50 68 58 Q64 70 55 68Z" fill="url(#amarelo)"/>
  <path d="M125 68 Q132 50 112 58 Q116 70 125 68Z" fill="url(#amarelo)"/>
  <rect x="55" y="128" width="14" height="18" rx="7" fill="#F5B800"/>
  <rect x="111" y="128" width="14" height="18" rx="7" fill="#F5B800"/>
  <ellipse cx="90" cy="104" rx="18" ry="13" fill="#052224" opacity="0.85"/>
  <circle cx="83" cy="104" r="3" fill="#FFD84D"/>
  <circle cx="97" cy="104" r="3" fill="#FFD84D"/>
  <circle cx="65" cy="88" r="4" fill="#052224"/>
  <circle cx="66.3" cy="86.7" r="1.2" fill="#FFFFFF"/>
  <rect x="80" y="66" width="20" height="6" rx="3" fill="#052224"/>
  <path d="M138 96 Q150 90 146 78" stroke="#F5B800" stroke-width="6" fill="none" stroke-linecap="round"/>
  <circle cx="134" cy="58" r="14" fill="url(#ouro)" stroke="#B8860B" stroke-width="1.5"/>
  <circle cx="134" cy="58" r="10" fill="none" stroke="#B8860B" stroke-width="1" opacity="0.6"/>
  <text x="134" y="63" font-size="15" font-weight="800" text-anchor="middle" fill="#8A5A00" font-family="Arial">$</text>
</svg>
